<?xml version="1.0" encoding="iso-8859-1"?>
<!-- Generator: Adobe Illustrator 21.0.0, SVG Export Plug-In . SVG Version: 6.00 Build 0)  -->
<svg xmlns="http://www.w3.org/2000/svg" xmlns:xlink="http://www.w3.org/1999/xlink" version="1.1" id="Capa_1" x="0px" y="0px" viewBox="0 0 44 44" style="enable-background:new 0 0 44 44;" xml:space="preserve" width="250px" height="250px">
<g>

		<ellipse id="_Ellipse__731_" style="opacity:0.15;fill:#45413C;enable-background:new    ;" cx="22" cy="42.18" rx="8.48" ry="1.82"/>
	<path style="fill:#FF6242;" d="M23.4,0.5h-2.8c-1.86,0-3.34,1.18-3.23,2.57L19,24.32c0.09,1.18,1.4,2.11,3,2.11s2.88-0.93,3-2.11   l1.63-21.25C26.74,1.68,25.26,0.5,23.4,0.5z"/>
	<path id="_Path__753_" style="fill:#FF866E;" d="M17.56,5.48c0.629-1.045,1.782-1.66,3-1.6h2.8c1.218-0.06,2.371,0.555,3,1.6   l0.19-2.41c0.11-1.39-1.37-2.57-3.23-2.57H20.6c-1.86,0-3.34,1.18-3.23,2.57L17.56,5.48z"/>
	<path style="fill:#45413C;" d="M22,26.93c-1.852,0-3.389-1.13-3.499-2.571l-1.63-21.25c-0.054-0.677,0.195-1.352,0.701-1.899   C18.271,0.452,19.403,0,20.6,0h2.8c1.196,0,2.328,0.452,3.028,1.208c0.505,0.547,0.754,1.222,0.7,1.9l-1.63,21.25   C25.349,25.83,23.845,26.93,22,26.93z M20.6,1c-0.923,0-1.78,0.332-2.293,0.888c-0.222,0.24-0.479,0.633-0.438,1.143l1.63,21.252   C19.568,25.19,20.69,25.93,22,25.93c1.309,0,2.409-0.729,2.503-1.66l1.629-21.238c0.04-0.511-0.217-0.904-0.438-1.145   C25.18,1.332,24.323,1,23.4,1H20.6z"/>
	<circle id="_Path_2_741_" style="fill:#FF6242;" cx="22" cy="33.24" r="3.65"/>
	<path id="_Path_3_737_" style="fill:#FF866E;" d="M22,31.93c1.508-0.134,2.937,0.695,3.57,2.07c0.052-0.253,0.079-0.511,0.08-0.77   c0-2.016-1.634-3.65-3.65-3.65s-3.65,1.634-3.65,3.65c0.001,0.259,0.028,0.517,0.08,0.77C19.063,32.625,20.492,31.796,22,31.93z"/>
	<path style="fill:#45413C;" d="M22,37.39c-2.288,0-4.15-1.861-4.15-4.149s1.862-4.15,4.15-4.15c2.289,0,4.15,1.862,4.15,4.15   S24.289,37.39,22,37.39z M22,30.09c-1.737,0-3.15,1.413-3.15,3.15c0,1.736,1.413,3.149,3.15,3.149s3.15-1.413,3.15-3.149   C25.15,31.503,23.737,30.09,22,30.09z"/>
</g>















</svg>
