<svg height="125px" width="125px;" viewBox="0 -21 512 512" xmlns="http://www.w3.org/2000/svg"><path d="m298.667969 138.667969h42.664062c5.890625 0 10.667969 4.773437 10.667969 10.664062v96c0 5.890625-4.777344 10.667969-10.667969 10.667969h-42.664062c-5.890625 0-10.667969-4.777344-10.667969-10.667969v-96c0-5.890625 4.777344-10.664062 10.667969-10.664062zm0 0" fill="#d0d7df"/><path d="m170.667969 138.667969h42.664062c5.890625 0 10.667969 4.773437 10.667969 10.664062v96c0 5.890625-4.777344 10.667969-10.667969 10.667969h-42.664062c-5.890625 0-10.667969-4.777344-10.667969-10.667969v-96c0-5.890625 4.777344-10.664062 10.667969-10.664062zm0 0" fill="#d0d7df"/><path d="m437.332031 74.667969v192l-53.332031 53.332031h-96l-53.332031 53.332031v-53.332031h-160v-213.332031l32-32zm-85.332031 170.664062v-96c0-5.890625-4.777344-10.664062-10.667969-10.664062h-42.664062c-5.890625 0-10.667969 4.773437-10.667969 10.664062v96c0 5.890625 4.777344 10.667969 10.667969 10.667969h42.664062c5.890625 0 10.667969-4.777344 10.667969-10.667969zm-128 0v-96c0-5.890625-4.777344-10.664062-10.667969-10.664062h-42.664062c-5.890625 0-10.667969 4.773437-10.667969 10.664062v96c0 5.890625 4.777344 10.667969 10.667969 10.667969h42.664062c5.890625 0 10.667969-4.777344 10.667969-10.667969zm0 0" fill="#f1f2f2"/><path d="m501.332031 10.667969v266.664062l-117.332031 117.335938h-85.332031l-53.335938 64h-64v-64h-170.664062v-330.667969l53.332031-53.332031zm-64 256v-192h-330.664062l-32 32v213.332031h160v53.332031l53.332031-53.332031h96zm0 0" fill="#a263e5"/><g fill="#474c54"><path d="m501.332031 0h-437.332031c-2.828125 0-5.542969 1.125-7.542969 3.125l-53.332031 53.332031c-2 2-3.125 4.714844-3.125 7.542969v330.667969c0 5.890625 4.777344 10.664062 10.667969 10.664062h160v53.335938c0 5.890625 4.773437 10.664062 10.664062 10.664062h64c3.167969.007813 6.175781-1.398437 8.203125-3.828125l50.132813-60.171875h80.332031c2.828125 0 5.542969-1.125 7.542969-3.125l117.332031-117.332031c2-2 3.125-4.714844 3.125-7.542969v-266.664062c0-5.890625-4.777344-10.667969-10.667969-10.667969zm-10.664062 272.917969-111.082031 111.082031h-80.917969c-3.167969-.003906-6.175781 1.398438-8.203125 3.828125l-50.132813 60.171875h-48.332031v-53.332031c0-5.890625-4.777344-10.667969-10.667969-10.667969h-160v-315.585938l47.082031-47.082031h422.253907zm0 0"/><path d="m64 106.667969v213.332031c0 5.890625 4.777344 10.667969 10.667969 10.667969h149.332031v42.664062c0 4.316407 2.601562 8.203125 6.585938 9.855469 3.984374 1.648438 8.570312.738281 11.621093-2.3125l50.207031-50.207031h91.585938c2.828125 0 5.542969-1.125 7.542969-3.125l53.332031-53.335938c2-2 3.125-4.710937 3.125-7.539062v-192c0-5.890625-4.777344-10.667969-10.667969-10.667969h-330.664062c-2.828125 0-5.542969 1.125-7.542969 3.125l-32 32c-2 2-3.125 4.714844-3.125 7.542969zm21.332031 4.414062 25.75-25.75h315.585938v176.917969l-47.082031 47.082031h-91.585938c-2.828125 0-5.542969 1.125-7.542969 3.125l-35.125 35.128907v-27.585938c0-5.890625-4.773437-10.667969-10.664062-10.667969h-149.335938zm0 0"/><path d="m234.667969 149.332031c0-11.78125-9.550781-21.332031-21.335938-21.332031h-42.664062c-11.785157 0-21.335938 9.550781-21.335938 21.332031v96c0 11.785157 9.550781 21.335938 21.335938 21.335938h42.664062c11.785157 0 21.335938-9.550781 21.335938-21.335938zm-21.335938 96h-42.664062v-96h42.664062zm0 0"/><path d="m298.667969 266.667969h42.664062c11.785157 0 21.335938-9.550781 21.335938-21.335938v-96c0-11.78125-9.550781-21.332031-21.335938-21.332031h-42.664062c-11.785157 0-21.335938 9.550781-21.335938 21.332031v96c0 11.785157 9.550781 21.335938 21.335938 21.335938zm0-117.335938h42.664062v96h-42.664062zm0 0"/></g></svg>
