<?xml version="1.0" encoding="iso-8859-1"?>
<!-- Generator: Adobe Illustrator 19.0.0, SVG Export Plug-In . SVG Version: 6.00 Build 0)  -->
<svg height="125px" width="125px" version="1.1" id="Capa_1" xmlns="http://www.w3.org/2000/svg" xmlns:xlink="http://www.w3.org/1999/xlink" x="0px" y="0px"
	 viewBox="0 0 512 512" style="enable-background:new 0 0 512 512;" xml:space="preserve">
<path style="fill:#FF3C3C;" d="M445.481,425.323H66.519C29.84,425.323,0,395.484,0,358.804v-205.61
	c0-36.679,29.84-66.519,66.519-66.519h378.962c36.679,0,66.519,29.84,66.519,66.519v205.611
	C512,395.484,482.159,425.323,445.481,425.323z"/>
<path style="fill:#DA0806;" d="M445.481,86.676H256.004v338.649h189.477c36.679,0,66.519-29.84,66.519-66.519V153.195
	C512,116.515,482.159,86.676,445.481,86.676z"/>
<path style="fill:#FFFFFF;" d="M201.156,354.569c-2.61,0-5.221-0.675-7.559-2.026c-4.677-2.7-7.559-7.691-7.559-13.092V172.548
	c0-5.401,2.881-10.392,7.559-13.092c4.677-2.701,10.44-2.701,15.118,0l144.544,83.452c4.677,2.7,7.559,7.691,7.559,13.092
	c0,5.401-2.882,10.392-7.559,13.092l-144.544,83.452C206.377,353.894,203.767,354.569,201.156,354.569z"/>
<path style="fill:#DCE1EB;" d="M353.259,242.907l-97.255-56.15v138.485l97.255-56.15c4.677-2.7,7.559-7.691,7.559-13.092
	S357.936,245.607,353.259,242.907z"/>
<g>
</g>
<g>
</g>
<g>
</g>
<g>
</g>
<g>
</g>
<g>
</g>
<g>
</g>
<g>
</g>
<g>
</g>
<g>
</g>
<g>
</g>
<g>
</g>
<g>
</g>
<g>
</g>
<g>
</g>
</svg>
