<svg height="75px" viewBox="-31 0 511 512" width="75px" xmlns="http://www.w3.org/2000/svg"><path d="m432.441406 256c0 114.324219-92.675781 207-207 207-114.320312 0-207-92.675781-207-207s92.679688-207 207-207c114.324219 0 207 92.675781 207 207zm0 0" fill="#f0c48a"/><path d="m340.957031 351.125h-261.425781c-16.722656 0-30.898438-12.300781-33.257812-28.859375l-39.574219-278.078125c-2.613281-18.363281 10.15625-35.371094 28.523437-37.988281 18.363282-2.609375 35.375 10.160156 37.988282 28.523437l35.46875 249.222656h232.277343c18.550781 0 33.589844 15.039063 33.589844 33.589844 0 18.550782-15.039063 33.589844-33.589844 33.589844zm0 0" fill="#fd919e"/><path d="m340.957031 283.945312h-70.527343c18.550781 0 33.589843 15.039063 33.589843 33.589844 0 18.550782-15.039062 33.589844-33.589843 33.589844h70.527343c18.550781 0 33.589844-15.039062 33.589844-33.589844 0-18.550781-15.039063-33.589844-33.589844-33.589844zm0 0" fill="#e8677d"/><path d="m340.957031 356.988281h-261.425781c-19.519531 0-36.308594-14.574219-39.058594-33.894531l-39.574218-278.078125c-3.066407-21.535156 11.960937-41.554687 33.5-44.617187 1.851562-.265626 3.734374-.398438 5.59375-.398438 19.496093 0 36.273437 14.574219 39.023437 33.898438l34.75 244.183593h227.191406c21.753907 0 39.453125 17.699219 39.453125 39.453125s-17.699218 39.453125-39.453125 39.453125zm-300.964843-345.261719c-1.308594 0-2.636719.09375-3.945313.28125-15.132813 2.152344-25.695313 16.21875-23.542969 31.355469l39.574219 278.078125c1.933594 13.578125 13.734375 23.820313 27.453125 23.820313h261.425781c15.289063 0 27.726563-12.4375 27.726563-27.726563 0-15.289062-12.4375-27.726562-27.726563-27.726562h-237.367187l-36.183594-254.257813c-1.933594-13.582031-13.71875-23.824219-27.414062-23.824219zm0 0" fill="#4c4372"/><path d="m331.269531 450.617188h-235.792969v-98.257813c0-19.234375 15.589844-34.824219 34.820313-34.824219h166.148437c19.230469 0 34.824219 15.589844 34.824219 34.824219zm0 0" fill="#d3e6f8"/><path d="m296.445312 317.535156h-37.335937c19.230469 0 34.824219 15.589844 34.824219 34.820313v98.261719h37.335937v-98.261719c0-19.230469-15.59375-34.820313-34.824219-34.820313zm0 0" fill="#a4cff2"/><path d="m331.269531 456.480469h-235.792969c-3.238281 0-5.863281-2.625-5.863281-5.863281v-98.261719c0-22.433594 18.25-40.683594 40.683594-40.683594h166.148437c22.433594 0 40.683594 18.25 40.683594 40.683594v98.261719c0 3.238281-2.625 5.863281-5.859375 5.863281zm-229.933593-11.726563h224.070312v-92.394531c0-15.96875-12.992188-28.960937-28.960938-28.960937h-166.148437c-15.96875 0-28.960937 12.988281-28.960937 28.960937zm0 0" fill="#4c4372"/><path d="m422.128906 473.222656h-90.859375c-12.371093 0-22.394531-10.027344-22.394531-22.394531s10.027344-22.390625 22.394531-22.390625h90.859375c12.367188 0 22.394532 10.023438 22.394532 22.390625s-10.027344 22.394531-22.394532 22.394531zm0 0" fill="#e8677d"/><path d="m422.128906 479.085938h-90.859375c-15.582031 0-28.257812-12.679688-28.257812-28.257813 0-15.582031 12.675781-28.257813 28.257812-28.257813h90.859375c15.582032 0 28.257813 12.675782 28.257813 28.257813 0 15.578125-12.675781 28.257813-28.257813 28.257813zm-90.859375-44.789063c-9.117187 0-16.53125 7.417969-16.53125 16.53125s7.414063 16.53125 16.53125 16.53125h90.859375c9.117188 0 16.53125-7.417969 16.53125-16.53125s-7.414062-16.53125-16.53125-16.53125zm0 0" fill="#4c4372"/><path d="m150.996094 450.617188c0 30.664062-24.859375 55.519531-55.519532 55.519531-30.664062 0-55.523437-24.855469-55.523437-55.519531 0-30.660157 24.859375-55.519532 55.523437-55.519532 30.660157 0 55.519532 24.859375 55.519532 55.519532zm0 0" fill="#7babf1"/><path d="m386.789062 450.617188c0 30.664062-24.859374 55.519531-55.519531 55.519531-30.664062 0-55.523437-24.855469-55.523437-55.519531 0-30.660157 24.859375-55.519532 55.523437-55.519532 30.660157 0 55.519531 24.859375 55.519531 55.519532zm0 0" fill="#7babf1"/><path d="m357.765625 450.828125c0 14.636719-11.863281 26.5-26.496094 26.5-14.636719 0-26.5-11.863281-26.5-26.5 0-14.632813 11.863281-26.5 26.5-26.5 14.632813 0 26.496094 11.867187 26.496094 26.5zm0 0" fill="#d3e6f8"/><path d="m121.972656 450.828125c0 14.636719-11.863281 26.5-26.496094 26.5-14.636718 0-26.5-11.863281-26.5-26.5 0-14.632813 11.863282-26.5 26.5-26.5 14.632813 0 26.496094 11.867187 26.496094 26.5zm0 0" fill="#d3e6f8"/><path d="m95.476562 512c-33.847656 0-61.386718-27.535156-61.386718-61.382812 0-33.847657 27.539062-61.382813 61.386718-61.382813 33.84375 0 61.378907 27.535156 61.378907 61.382813.003906 33.847656-27.535157 61.382812-61.378907 61.382812zm0-111.039062c-27.382812 0-49.660156 22.277343-49.660156 49.65625 0 27.382812 22.277344 49.65625 49.660156 49.65625 27.378907 0 49.65625-22.277344 49.65625-49.65625 0-27.378907-22.277343-49.65625-49.65625-49.65625zm0 0" fill="#4c4372"/><path d="m331.269531 512c-33.847656 0-61.382812-27.535156-61.382812-61.382812 0-33.847657 27.535156-61.382813 61.382812-61.382813 33.84375 0 61.378907 27.535156 61.378907 61.382813.003906 33.847656-27.535157 61.382812-61.378907 61.382812zm0-111.039062c-27.382812 0-49.660156 22.277343-49.660156 49.65625 0 27.382812 22.277344 49.65625 49.660156 49.65625 27.378907 0 49.65625-22.277344 49.65625-49.65625 0-27.378907-22.277343-49.65625-49.65625-49.65625zm0 0" fill="#4c4372"/><path d="m331.269531 483.191406c-17.847656 0-32.363281-14.519531-32.363281-32.363281s14.515625-32.359375 32.363281-32.359375c17.84375 0 32.359375 14.515625 32.359375 32.359375s-14.515625 32.363281-32.359375 32.363281zm0-53c-11.378906 0-20.636719 9.257813-20.636719 20.636719s9.257813 20.636719 20.636719 20.636719c11.378907 0 20.632813-9.257813 20.632813-20.636719s-9.253906-20.636719-20.632813-20.636719zm0 0" fill="#4c4372"/><path d="m95.476562 483.191406c-17.847656 0-32.363281-14.519531-32.363281-32.363281s14.515625-32.359375 32.363281-32.359375c17.84375 0 32.359376 14.515625 32.359376 32.359375s-14.515626 32.363281-32.359376 32.363281zm0-53c-11.378906 0-20.636718 9.257813-20.636718 20.636719s9.257812 20.636719 20.636718 20.636719c11.378907 0 20.632813-9.257813 20.632813-20.636719s-9.253906-20.636719-20.632813-20.636719zm0 0" fill="#4c4372"/><path d="m117.875 300.367188c-6.105469 0-12.1875-2.480469-16.609375-7.363282-8.300781-9.167968-7.59375-23.328125 1.574219-31.628906l73.054687-67.617188c9.167969-8.304687 23.332031-7.597656 31.628907 1.570313 8.300781 9.167969 7.597656 23.328125-1.574219 31.628906l-73.054688 67.621094c-4.28125 3.878906-9.660156 5.789063-15.019531 5.789063zm0 0" fill="#d3e6f8"/><path d="m117.875 306.230469c-7.96875 0-15.609375-3.386719-20.953125-9.292969-5.066406-5.59375-7.648437-12.828125-7.273437-20.367188.375-7.535156 3.664062-14.476562 9.257812-19.542968l73.007812-67.574219c5.253907-4.757813 11.984376-7.351563 19.003907-7.351563 7.972656 0 15.609375 3.386719 20.953125 9.292969 5.066406 5.59375 7.648437 12.828125 7.273437 20.367188-.375 7.535156-3.660156 14.476562-9.257812 19.542969l-73.007813 67.574218c-5.253906 4.757813-11.984375 7.351563-19.003906 7.351563zm73.039062-112.40625c-4.101562 0-8.039062 1.519531-11.082031 4.277343l-73.007812 67.574219c-3.324219 3.007813-5.246094 7.066407-5.464844 11.476563s1.289063 8.640625 4.253906 11.914062c3.128907 3.457032 7.597657 5.4375 12.261719 5.4375 4.105469 0 8.039062-1.515625 11.085938-4.273437l73.007812-67.578125c3.320312-3.007813 5.246094-7.066406 5.464844-11.476563.21875-4.410156-1.292969-8.640625-4.253906-11.914062-3.128907-3.457031-7.597657-5.4375-12.265626-5.4375zm0 0" fill="#4c4372"/><path d="m284.816406 220.339844h-188.570312c-12.371094 0-22.394532-10.023438-22.394532-22.390625 0-12.371094 10.027344-22.394531 22.394532-22.394531h188.570312c12.367188 0 22.390625 10.027343 22.390625 22.394531 0 12.367187-10.023437 22.390625-22.390625 22.390625zm0 0" fill="#a4cff2"/><path d="m284.816406 175.554688h-39.535156c12.367188 0 22.390625 10.023437 22.390625 22.390624 0 12.371094-10.023437 22.394532-22.390625 22.394532h39.535156c12.367188 0 22.390625-10.023438 22.390625-22.394532 0-12.367187-10.023437-22.390624-22.390625-22.390624zm0 0" fill="#7babf1"/><g fill="#4c4372"><path d="m284.816406 226.203125h-188.570312c-15.582032 0-28.257813-12.675781-28.257813-28.257813 0-15.578124 12.675781-28.253906 28.257813-28.253906h188.570312c15.578125 0 28.253906 12.675782 28.253906 28.253906 0 15.582032-12.675781 28.257813-28.253906 28.257813zm-188.570312-44.785156c-9.117188 0-16.53125 7.414062-16.53125 16.527343 0 9.117188 7.414062 16.53125 16.53125 16.53125h188.570312c9.113282 0 16.53125-7.414062 16.53125-16.53125 0-9.113281-7.417968-16.527343-16.53125-16.527343zm0 0"/><path d="m167.382812 416.570312c-3.238281 0-5.863281-2.625-5.863281-5.863281v-34.523437c0-3.238282 2.625-5.863282 5.863281-5.863282 3.238282 0 5.863282 2.625 5.863282 5.863282v34.523437c0 3.238281-2.625 5.863281-5.863282 5.863281zm0 0"/><path d="m209.285156 416.570312c-3.238281 0-5.863281-2.625-5.863281-5.863281v-34.523437c0-3.238282 2.625-5.863282 5.863281-5.863282 3.238282 0 5.863282 2.625 5.863282 5.863282v34.523437c0 3.238281-2.625 5.863281-5.863282 5.863281zm0 0"/><path d="m251.191406 416.570312c-3.234375 0-5.859375-2.625-5.859375-5.863281v-34.523437c0-3.238282 2.625-5.863282 5.859375-5.863282 3.238282 0 5.863282 2.625 5.863282 5.863282v34.523437c0 3.238281-2.625 5.863281-5.863282 5.863281zm0 0"/><path d="m235.210938 181.417969c-.710938 0-1.4375-.132813-2.140626-.40625-3.015624-1.183594-4.5-4.585938-3.316406-7.601563l19.839844-50.484375c1.183594-3.015625 4.585938-4.496093 7.601562-3.3125 3.011719 1.183594 4.496094 4.585938 3.3125 7.601563l-19.839843 50.484375c-.90625 2.308593-3.117188 3.71875-5.457031 3.71875zm0 0"/></g><path d="m271.664062 125.070312c0 9.171876-7.4375 16.609376-16.613281 16.609376-9.171875 0-16.609375-7.4375-16.609375-16.609376 0-9.175781 7.4375-16.613281 16.609375-16.613281 9.175781 0 16.613281 7.4375 16.613281 16.613281zm0 0" fill="#fd919e"/><path d="m255.050781 147.542969c-12.390625 0-22.472656-10.082031-22.472656-22.472657 0-12.394531 10.082031-22.472656 22.472656-22.472656 12.394531 0 22.472657 10.078125 22.472657 22.472656 0 12.390626-10.082032 22.472657-22.472657 22.472657zm0-33.222657c-5.925781 0-10.746093 4.824219-10.746093 10.75 0 5.925782 4.820312 10.746094 10.746093 10.746094 5.929688 0 10.75-4.820312 10.75-10.746094 0-5.929687-4.824219-10.75-10.75-10.75zm0 0" fill="#4c4372"/></svg>
